<svg height='100px' width='100px'  fill="#0080FF" xmlns="http://www.w3.org/2000/svg" xmlns:xlink="http://www.w3.org/1999/xlink" version="1.0" x="0px" y="0px" viewBox="0 0 24 24" enable-background="new 0 0 24 24" xml:space="preserve"><circle cx="11" cy="4" r="2"></circle><polygon points="13.9,8 14.3,11.4 10.5,13.2 9.4,9.7 "></polygon><path fill="none" stroke="#0080FF" stroke-miterlimit="10" d="M15,9.5c1.1,0,5.5-0.5,5.5-7.5"></path><line fill="none" stroke="#0080FF" stroke-linejoin="round" stroke-miterlimit="10" x1="14.5" y1="22" x2="14.5" y2="14"></line><path fill="none" stroke="#0080FF" stroke-width="2" stroke-miterlimit="10" d="M4.3,5.8c0,0,0.8,1.3,1.5,2.5c0.7,1.1,2,1.5,3.2,1  l5.7-2.4c0.7-0.3,1.3-0.9,1.5-1.7C16.6,4,17,2.4,17,2.4"></path><path fill="none" stroke="#0080FF" stroke-width="2" stroke-miterlimit="10" d="M8.7,18.1c0.2-1.1,1-2.1,2-2.6l4.6-2.3  c0.9-0.4,1.9,0.1,2,1.1l0.5,4.5"></path><polygon points="8.9,22 9.7,18.3 7.7,17.9 6.8,22 "></polygon></svg>