<?xml version="1.0"?>
<svg xmlns="http://www.w3.org/2000/svg" height="512px" viewBox="0 0 512.10449 512" width="512px" class=""><g><path d="m486.503906.0507812h-372.632812c-3.691406.0078126-7.28125 1.2070308-10.238282 3.4140628l-28.433593 21.335937c-4.300781 3.222657-6.828125 8.28125-6.828125 13.652344v15.195313c-.054688 6.339843 3.460937 12.167968 9.097656 15.070312l7.96875 4.40625v344.949219c0 4.75-3.851562 8.601562-8.601562 8.601562s-8.601563-3.851562-8.601563-8.601562c0-4.710938-3.820313-8.53125-8.53125-8.53125-4.714844 0-8.535156 3.820312-8.535156 8.53125 0 14.175781 11.492187 25.667969 25.667969 25.667969 14.175781 0 25.667968-11.492188 25.667968-25.667969v-335.53125l1.902344 1.058593c2.363281 1.175782 4.964844 1.785157 7.605469 1.785157 1.4375-.003907 2.871093-.183594 4.265625-.53125l20.359375-5.441407v48.636719h-8.53125c-4.714844 0-8.535157 3.820313-8.535157 8.535157 0 4.710937 3.820313 8.53125 8.535157 8.53125h8.53125v5.90625c.007812 8.691406 4.425781 16.789062 11.734375 21.496093l-9.234375 9.234375c-2.21875 2.140625-3.105469 5.3125-2.324219 8.296875s3.109375 5.3125 6.09375 6.09375 6.15625-.109375 8.296875-2.324219l13.65625-13.65625 23.039063 10.078126c.46875 7.460937 3.414062 30.199218 21.683593 39.347656 4.625 2.246094 9.714844 3.375 14.855469 3.304687 12.402344-.761719 24.40625-4.691406 34.859375-11.410156l15.707031 6.824219c1.074219.46875 2.039063 1.152344 2.835938 2.007812l12.945312 13.875c-3.433594 6.726563-10.089844 11.207032-17.613281 11.859375-4.714844 0-8.535156 3.820313-8.535156 8.535157 0 4.710937 3.820312 8.53125 8.535156 8.53125 11.816406-.558594 22.742187-6.449219 29.703125-16.015626l13.3125 14.269532c-.175781.566406-.292969 1.152344-.351562 1.746094v34.03125c.011718 9.480468 7.691406 17.160156 17.171874 17.171874h32.597657l7.226562 7.738282-11.828125 11.828125c-2.21875 2.140625-3.105468 5.3125-2.324218 8.296875.777343 2.984375 3.109374 5.316406 6.09375 6.09375 2.980468.78125 6.15625-.105469 8.296874-2.324219l11.410157-11.410156 5.863281 6.28125c1.476562 1.574219 2.296875 3.65625 2.292969 5.820312v27.40625h-17.066407c-4.710937 0-8.53125 3.820313-8.53125 8.535157 0 4.710937 3.820313 8.53125 8.53125 8.53125h17.066407v25.601562h-8.53125c-4.714844 0-8.535157 3.820312-8.535157 8.535156 0 4.710938 3.820313 8.53125 8.535157 8.53125h8.53125v17.066406h-296.625c-.542969 0-1.082031.050782-1.613281.152344l-5.207032 1.007813h-.1875l-76.875 16.8125c-.464844.105469-.921875.242187-1.367187.417969-7.613281 3.003906-12.003907 11.003906-10.449219 19.042968 1.554688 8.035156 8.613281 13.820313 16.800781 13.765625h486.457031c4.714844 0 8.535157-3.820312 8.535157-8.53125v-477.867187c0-14.136719-11.460938-25.6015628-25.601563-25.6015628zm-374.152344 68.4492188-26.914062-14.851562v-15.195313l28.433594-21.335937h22.765625v44.699218zm104.902344 145.78125c-5.675781-3.558594-9.578125-9.351562-10.746094-15.949219l32.425782 14.183594c-6.71875 3.390625-14.5 4.027344-21.679688 1.765625zm115.652344 92.867188v-17.867188l16.722656 17.917969zm-240.351562 171.625 4.265624-.855469h295.816407v17.066406l-374.9375.136719zm402.484374 16.210937h-85.335937v-138.339844c.011719-6.484375-2.453125-12.730469-6.886719-17.460937l-112.460937-120.507813c-2.382813-2.550781-5.265625-4.585937-8.472657-5.972656l-123.058593-53.863281c-3.109375-1.355469-5.117188-4.425782-5.121094-7.816406v-133.90625h332.800781c4.714844 0 8.535156 3.820312 8.535156 8.535156zm0 0" data-original="#000000" class="active-path" data-old_color="#000000" fill="#4CAF50"/><path d="m307.246094 192.785156c-2.339844-2.398437-5.125-4.3125-8.203125-5.640625l-105.761719-45.6875c-3.296875-1.277343-5.460938-4.457031-5.445312-7.996093v-90.742188c0-4.710938-3.820313-8.53125-8.53125-8.53125-4.714844 0-8.535157 3.820312-8.535157 8.53125v90.742188c-.066406 10.460937 6.28125 19.890624 15.992188 23.765624l105.515625 45.585938c1.0625.460938 2.023437 1.128906 2.824218 1.964844l129.167969 129.117187c1.605469 1.59375 2.503907 3.761719 2.5 6.023438v129.46875c0 4.710937 3.820313 8.53125 8.535157 8.53125 4.710937 0 8.53125-3.820313 8.53125-8.53125v-129.46875c.019531-6.789063-2.679688-13.304688-7.5-18.089844zm0 0" data-original="#000000" class="active-path" data-old_color="#000000" fill="#4CAF50"/></g> </svg>
