<svg xmlns="http://www.w3.org/2000/svg" xmlns:xlink="http://www.w3.org/1999/xlink" version="1.1" x="0px" y="0px" viewBox="0 0 50 62.5" enable-background="new 0 0 50 50" xml:space="preserve"><g><g><circle cx="13.8" cy="7.2" r="4.9"/><path d="M46,46.9c0.2,1.1-0.7,2.1-1.8,2.1c-7.2,0-6.9,0-7.1,0c-1.3-0.2-2.3-1.3-2.3-2.7V36.1l-13.3-0.2c-1.1,0-3.3-1-4.3-3.1    l-4.3-9L9.5,34.7c-0.3,0.9-1.2,1.5-2.3,1.2c-1-0.3-1.5-1.3-1.2-2.3l5.2-16.5c0-0.1,0-0.1,0.1-0.2c0,0,0,0,0,0    c0.4-1.2,1.1-2.2,2.2-2.9c2.8-1.8,6.4-0.7,7.8,2.3c5.6,11.5,6.2,14.4,7.6,14.4c3.2,0,7.7,0.1,8.6,0.1c1.5,0,2.7,1.2,2.7,2.7v11.9    h4C45,45.4,45.8,46,46,46.9z"/><path d="M31.8,40.5v7.1c0,0.8-0.7,1.4-1.4,1.4h-1.4c-0.8,0-1.4-0.7-1.4-1.4v-3.9c0-0.7-0.6-1.3-1.3-1.3H5.4    c-0.8,0-1.4-0.6-1.4-1.4v-1.4c0-0.8,0.6-1.4,1.4-1.4h24C30.7,38.1,31.8,39.1,31.8,40.5z"/></g><g><g><path d="M41.5,15.6c0.1-0.2,3.4-3.9,1.6-8.1c-1.5-3.3-1.2-5.9-1.2-6.5c-0.1,0.2-3,4.2-1.2,8.2c1,2.2,1,4.2,0.9,4.2V15.6z"/></g><g><path d="M36.5,25.3c0.1-0.2,3.6-4.1,1.6-8.5c-1.6-3.5-1.3-6.2-1.3-6.8c-0.1,0.2-3.2,4.4-1.3,8.6C36.6,21,36.5,22.7,36.5,25.3z"/></g></g></g><text x="0" y="65" fill="#000000" font-size="5px" font-weight="bold" font-family="'Helvetica Neue', Helvetica, Arial-Unicode, Arial, Sans-serif">Created by Vectors Market</text><text x="0" y="70" fill="#000000" font-size="5px" font-weight="bold" font-family="'Helvetica Neue', Helvetica, Arial-Unicode, Arial, Sans-serif">from the Noun Project</text></svg>