<?xml version="1.0" encoding="utf-8"?>
<!-- Svg Vector Icons : http://www.onlinewebfonts.com/icon -->
<!DOCTYPE svg PUBLIC "-//W3C//DTD SVG 1.1//EN" "http://www.w3.org/Graphics/SVG/1.1/DTD/svg11.dtd">
<svg version="1.1" xmlns="http://www.w3.org/2000/svg" xmlns:xlink="http://www.w3.org/1999/xlink" x="0px" y="0px" viewBox="0 0 1000 1000" enable-background="new 0 0 1000 1000" xml:space="preserve">
<metadata> Svg Vector Icons : http://www.onlinewebfonts.com/icon </metadata>
<g><g transform="translate(0.000000,511.000000) scale(0.100000,-0.100000)"><path d="M4594.2,4976.7c-290.8-73.3-604.3-265.5-811.6-495.6c-581.5-647.3-528.4-1676.3,118.8-2260.4c184.6-166.9,485.5-326.2,715.5-381.8c235.1-53.1,644.7-37.9,869.8,35.4c482.9,159.3,877.4,556.2,1041.7,1054.3c48,149.2,58.1,227.6,55.6,493c0,273.1-10.1,341.3-68.3,500.6c-169.4,477.9-518.3,831.8-998.7,1011.4C5302.1,5014.6,4829.3,5034.8,4594.2,4976.7z"/><path d="M4667.5,1624c-513.3-50.6-783.8-177-1142.8-538.5c-268-270.5-417.2-490.5-847-1244c-442.5-778.7-594.2-1008.8-814.1-1241.4c-192.2-202.3-343.9-305.9-541.1-376.7c-202.3-68.3-361.6-202.3-450-376.7c-65.7-129-75.8-174.5-75.8-351.4c0-164.4,12.6-227.6,58.1-318.6c111.3-212.4,257.9-328.7,485.5-386.8l134-35.4l-5-187.1c-10.1-326.2,151.7-692.8,379.3-854.6c273.1-199.7,882.4-354,1805.3-460.2c346.4-37.9,1754.7-58.2,2050.5-27.8c293.3,30.3,414.7,80.9,541.1,222.5c116.3,134,159.3,250.3,161.8,440c2.5,197.2-70.8,351.4-212.4,437.4c-86,55.6-106.2,55.6-948.2,55.6c-879.9,2.5-1170.6,25.3-1648.5,128.9c-199.7,43-247.8,80.9-225,171.9c20.2,83.5,68.3,96.1,250.3,53.1c460.2-103.7,718.1-123.9,1623.2-126.4h884.9l118.8-68.3c232.6-139,374.2-394.4,374.2-682.7c0-204.8-37.9-318.6-154.2-472.8c-91-121.3-93.6-128.9-40.5-128.9c139.1,0,781.3,108.7,1049.3,179.5c551.2,141.6,783.8,300.9,948.2,649.8c73.3,154.2,80.9,192.1,80.9,412.1v245.3l128.9,27.8c204.8,45.5,384.3,187.1,482.9,379.3c70.8,136.5,83.4,184.6,83.4,338.8c0,202.3-48,336.3-177,498.1c-70.8,88.5-164.3,144.1-467.8,278.1c-379.3,166.9-644.7,500.6-1238.9,1555c-488,869.7-763.6,1231.3-1175.7,1542.3c-202.3,154.2-447.5,230.1-844.5,265.5C4988.6,1654.4,4986.1,1654.4,4667.5,1624z M3590.4-2069.9v-665h-422.2c-235.1,0-475.3-10.1-538.5-20.2l-113.8-22.8l126.4,108.7c361.6,311,490.5,457.7,609.3,690.3c111.2,214.9,316,571.4,331.2,571.4C3587.9-1407.5,3590.4-1705.8,3590.4-2069.9z M6740.8-1941c139.1-273,252.8-404.5,629.6-728.2l126.4-108.7l-113.8,22.8c-63.2,10.1-303.4,20.2-538.5,20.2h-422.2v670l2.5,670l88.5-139.1C6561.3-1609.8,6664.9-1794.3,6740.8-1941z"/></g></g>
</svg>